# Blender v2.78 (sub 0) OBJ File: 'Box.blend'
# www.blender.org
mtllib box.mtl
o Cube
v 1.000000 -1.000000 1.000000
v 1.000000 -1.000000 -1.000000
v -1.000000 -1.000000 -1.000000
v -1.000000 -1.000000 1.000000
v 1.000000 1.000000 0.999999
v 0.999999 1.000000 -1.000001
v -1.000000 1.000000 -1.000000
v -1.000000 1.000000 1.000000
v 1.000000 -1.000000 1.000000
v -1.000000 -1.000000 1.000000
v 1.000000 1.000000 0.999999
v 1.000000 1.000000 0.999999
v 0.999999 1.000000 -1.000001
v -1.000000 1.000000 1.000000
v 1.000000 -0.337132 0.337132
v 1.000000 -0.337132 -0.337133
v 1.000000 0.337132 0.337132
v 1.000000 0.337132 -0.337133
v 0.337133 1.000000 0.337132
v 0.337132 1.000000 -0.337133
v -0.337133 1.000000 0.337132
v -0.337133 1.000000 -0.337132
v 0.337133 -0.337132 1.000000
v -0.337132 -0.337132 1.000000
v 0.337133 0.337132 1.000000
v -0.337132 0.337132 1.000000
v 1.192926 -0.337132 0.337132
v 1.192926 -0.337132 -0.337133
v 1.192926 0.337132 0.337132
v 1.192925 0.337132 -0.337133
v 0.337133 1.192926 0.337132
v 0.337132 1.192926 -0.337133
v -0.337133 1.192926 0.337132
v -0.337133 1.192926 -0.337132
v 0.337133 -0.337132 1.192926
v -0.337132 -0.337132 1.192926
v 0.337133 0.337133 1.192925
v -0.337132 0.337133 1.192926
vn 1.0000 0.0000 -0.0000
vn -1.0000 -0.0000 0.0000
vn 0.0000 -1.0000 0.0000
vn 0.0000 1.0000 0.0000
vn 0.0000 0.0000 1.0000
vn -0.0000 -0.0000 -1.0000
usemtl Red
s off
f 13//1 18//1 16//1 2//1
f 3//2 10//2 14//2 7//2
f 16//3 28//3 27//3 15//3
f 17//4 29//4 30//4 18//4
f 11//1 17//1 18//1 13//1
f 9//1 15//1 17//1 11//1
f 2//1 16//1 15//1 9//1
f 27//1 28//1 30//1 29//1
f 15//5 27//5 29//5 17//5
f 18//6 30//6 28//6 16//6
usemtl Green
f 9//3 10//3 3//3 2//3
f 14//4 21//4 22//4 7//4
f 20//1 32//1 31//1 19//1
f 6//4 20//4 19//4 12//4
f 12//4 19//4 21//4 14//4
f 7//4 22//4 20//4 6//4
f 31//4 32//4 34//4 33//4
f 19//5 31//5 33//5 21//5
f 22//6 34//6 32//6 20//6
f 21//2 33//2 34//2 22//2
usemtl Blue
f 2//6 3//6 7//6 6//6
f 4//5 24//5 26//5 8//5
f 1//5 23//5 24//5 4//5
f 8//5 26//5 25//5 5//5
f 5//5 25//5 23//5 1//5
f 37//5 38//5 36//5 35//5
f 23//3 35//3 36//3 24//3
f 26//4 38//4 37//4 25//4
f 25//1 37//1 35//1 23//1
f 24//2 36//2 38//2 26//2
